<?xml version="1.0" encoding="UTF-8"?>
<svg xmlns="http://www.w3.org/2000/svg" xmlns:xlink="http://www.w3.org/1999/xlink" width="100pt" height="100pt" viewBox="0 0 100 100" version="1.1">
<g id="surface1">
<path style=" stroke:none;fill-rule:nonzero;fill:rgb(100%,100%,100%);fill-opacity:1;" d="M 100 50.003906 C 100 77.613281 77.613281 100 49.996094 100 C 22.382813 100 0 77.613281 0 50.003906 C 0 22.386719 22.382813 0 49.996094 0 C 77.613281 0 100 22.386719 100 50.003906 "/>
<path style=" stroke:none;fill-rule:nonzero;fill:rgb(95.698547%,47.499084%,12.5%);fill-opacity:1;" d="M 92.382813 66.921875 L 79.90625 48.226563 L 89.464844 34.152344 C 90.589844 32.503906 90.332031 30.667969 88.90625 30.066406 C 87.472656 29.476563 85.226563 30.21875 83.914063 31.730469 L 75.410156 41.5 L 69.535156 32.683594 C 68.425781 31.019531 65.996094 30.152344 64.136719 30.746094 C 62.28125 31.339844 61.371094 33.34375 62.128906 35.195313 L 68.972656 49.089844 L 59.132813 60.21875 C 57.820313 61.734375 57.621094 64.347656 58.6875 66.03125 L 61.144531 69.925781 C 62.214844 71.617188 64.015625 71.644531 65.132813 69.992188 L 73.394531 57.808594 L 80.101563 70.105469 C 80.855469 71.960938 83.050781 73.035156 84.980469 72.515625 L 90.898438 70.902344 C 92.824219 70.371094 93.492188 68.582031 92.382813 66.921875 "/>
<path style=" stroke:none;fill-rule:nonzero;fill:rgb(31.399536%,17.999268%,50.19989%);fill-opacity:1;" d="M 20.132813 64.007813 C 15.863281 64.007813 12.402344 58.046875 12.402344 50.691406 C 12.402344 43.34375 15.863281 37.390625 20.132813 37.390625 C 24.402344 37.390625 27.863281 43.34375 27.863281 50.691406 C 27.863281 58.046875 24.402344 64.007813 20.132813 64.007813 M 20.132813 31.117188 C 10.957031 31.117188 3.523438 39.878906 3.523438 50.691406 C 3.523438 61.507813 10.957031 70.273438 20.132813 70.273438 C 29.300781 70.273438 36.742188 61.507813 36.742188 50.691406 C 36.742188 39.878906 29.300781 31.117188 20.132813 31.117188 "/>
<path style=" stroke:none;fill-rule:nonzero;fill:rgb(65.899658%,70.999146%,21.998596%);fill-opacity:1;" d="M 41.800781 25.78125 C 39.496094 25.765625 38.707031 27.667969 38.847656 29.613281 L 38.851563 54.71875 C 38.925781 57.078125 40.089844 58.527344 42.738281 58.566406 L 56.578125 58.574219 C 58.769531 58.613281 59.957031 58.109375 60.164063 56.308594 L 60.164063 51.957031 C 60.136719 49.945313 58.09375 49.953125 56.695313 49.984375 L 51.007813 49.984375 C 48.75 49.964844 48.230469 49.589844 48.140625 47.363281 L 48.164063 29.53125 C 48.207031 27.449219 47.484375 25.789063 45.179688 25.773438 L 41.800781 25.78125 "/>
</g>
</svg>
